<svg width="1674px" height="2440px" viewBox="0 0 1674 2440" version="1.1" xmlns="http://www.w3.org/2000/svg" xmlns:xlink="http://www.w3.org/1999/xlink">
    <g transform="translate(-57.000000, -6.000000)" fill="#69D7E2">
        <path d="M1610.86433,439.637637 C1866.32011,349.476352 1666.68086,-0.429316406 1444.13312,154.125703 C1298.1625,28.9012969 1097.09371,6 885.996623,6 C679.209693,22.4719805 482.422326,60.3941719 345.036096,180.60443 C123.199537,37.4856914 -81.4466818,380.954859 179.01606,467.545898 C106.030748,750.902754 189.02999,1039.99212 177.579342,1328.36312 C166.847053,1587.40351 98.8687049,1934.44293 242.698619,2167.00459 C365.063955,2365.93267 628.385767,2436.77727 845.208178,2444.65049 C1122.12853,2454.66442 1457.72448,2386.68607 1592.25164,2118.35011 C1721.05348,1862.89433 1685.27918,1544.46717 1668.82157,1268.97635 C1652.36395,990.619277 1683.13129,707.973598 1610.85715,439.630453 L1610.86433,439.637637 Z" id="body"></path>
    </g>
</svg>