<svg width="481px" height="446px" viewBox="0 0 481 446" version="1.1" xmlns="http://www.w3.org/2000/svg" xmlns:xlink="http://www.w3.org/1999/xlink">
    <g transform="translate(-350.000000, -158.000000)">
        <g id="eye1" transform="translate(350.231891, 158.866656)">
            <path d="M12.4576133,276.357074 C78.2880664,532.524027 488.306047,466.693574 472.566793,209.808262 C453.954102,-97.8866094 -50.5137695,-38.4926563 12.4504297,276.357074" id="Path" fill="#FFFFFF"></path>
            <path d="M479.721652,209.089902 C475.425863,134.667871 442.510637,76.7106367 388.130832,40.2179805 C339.469168,7.30275391 275.06825,-5.57742969 211.385691,2.28860547 C147.703133,10.8873672 89.0203555,39.5068047 50.3798047,84.5910391 C7.45064844,134.675055 -9.00696484,200.505508 6.02111328,276.357074 L12.4576133,274.920355 L6.02111328,276.357074 C73.2811016,539.678887 495.460906,475.996328 479.721652,209.089902 Z M18.8941133,274.927539 C4.58439453,202.660586 20.330832,141.118738 60.400918,94.6049687 C96.8935742,52.3869883 151.991738,24.4859102 212.815227,16.6126914 C273.638715,8.73947266 334.462203,20.9084805 380.264797,52.3869883 C431.059988,86.7389336 461.834504,140.407562 466.123109,211.24498 C481.151187,460.975434 82.5838555,521.087746 18.9012969,274.927539 L18.8941133,274.927539 Z" id="Shape" fill="#000000" fill-rule="nonzero"></path>
            <ellipse id="Oval" fill="#000000" cx="125.520195" cy="234.139094" rx="69.4078828" ry="75.133207"></ellipse>
            <ellipse id="Oval" fill="#FFFFFF" cx="156.998703" cy="251.307883" rx="16.4576133" ry="19.3166836"></ellipse>
        </g>
    </g>
</svg>