<svg width="484px" height="446px" viewBox="0 0 484 446" version="1.1" xmlns="http://www.w3.org/2000/svg" xmlns:xlink="http://www.w3.org/1999/xlink">
    <g transform="translate(-930.000000, -134.000000)">
        <g id="eye2" transform="translate(929.123055, 129.008680)">
            <path d="M8.58439453,258.322031 C59.3939531,552.418359 540.249352,474.418898 470.841469,178.174676 C408.588445,-88.0133906 -8.59157812,-14.3097187 8.58439453,258.322031" id="Path" fill="#FFFFFF"></path>
            <path d="M477.277969,176.745141 C413.59541,-97.3161445 -15.7320703,-22.1829375 1.43671875,259.033207 L1.43671875,259.751566 C25.0420078,398.567332 148.844062,469.411934 285.511934,446.510637 C347.757773,435.778348 403.574297,405.729375 440.066953,361.3635 C480.137039,311.983477 494.446758,248.300918 477.277969,176.745141 Z M429.341848,352.771922 C394.989902,394.278727 342.757992,422.898164 283.364039,432.919277 C153.843844,454.383855 37.9221914,387.835043 15.0280781,257.603672 C-0.718359375,-7.15485937 404.292656,-77.9994609 464.397785,179.604211 C480.144223,247.582559 467.264039,306.976512 429.341848,352.771922 Z" id="Shape" fill="#000000" fill-rule="nonzero"></path>
            <ellipse id="Oval" fill="#000000" cx="126.653941" cy="245.441848" rx="67.9783477" ry="75.133207"></ellipse>
            <ellipse id="Oval" fill="#FFFFFF" cx="158.139633" cy="262.610637" rx="15.7392539" ry="19.3166836"></ellipse>
        </g>
    </g>
</svg>